Coordinates
version=1
nRows=28
nColumns=33
inDegrees=yes

Units are S.I. units (second, meters, Newtons, ...)
Angles are in degrees.

endheader
time	ground_thorax_rot_x	ground_thorax_rot_y	ground_thorax_rot_z	ground_thorax_tx	ground_thorax_ty	ground_thorax_tz	clav_prot_r	clav_elev_r	scapula_abduction_r	scapula_elevation_r	scapula_upward_rot_r	scapula_winging_r	shoulder_elv_r	plane_of_elev_r	axial_rot_r	elbow_flexion_r	pro_sup_r	wrist_flex_r	wrist_dev_r	clav_prot_l	clav_elev_l	scapula_abduction_l	scapula_elevation_l	scapula_upward_rot_l	scapula_winging_l	shoulder_elv_l	plane_of_elev_l	axial_rot_l	elbow_flexion_l	pro_sup_l	wrist_flex_l	wrist_dev_l	
4.7600	-39.013367	-10.369714	11.292703	-150.881519	806.688193	6.077975	6.422342	-45.000000	44.999974	-45.000000	-14.990278	-3337.226886	-1372.862616	31.490564	63.903791	2172.277421	23.996805	19.269805	9.063177	-5.409057	41.747509	-45.000000	-45.000000	45.000000	3002.401015	-6399.423245	10.938211	180.000000	11.373426	-143.795873	9.052178	-13.493063	
4.7700	-39.006002	-10.184338	11.289720	-153.644694	808.369441	5.984283	6.465245	-45.000000	44.999953	-45.000000	-15.094128	-3337.449232	-1372.605372	31.554639	63.873385	2172.323205	23.672283	19.306040	8.991117	-5.351052	41.716315	-45.000000	-45.000000	45.000000	3002.340584	-6399.142923	10.995890	180.000000	11.437308	-144.449271	9.166060	-13.518228	
4.7800	-39.005492	-9.983021	11.256249	-156.382127	810.055669	5.901204	6.478836	-45.000000	44.999916	-45.000000	-15.149118	-3337.662905	-1372.346605	31.597747	63.846278	2172.376971	23.343483	19.345254	8.928464	-5.294362	41.706865	-45.000000	-45.000000	45.000000	3002.279253	-6398.877279	11.058254	180.000000	11.500852	-145.073000	9.292617	-13.556431	
4.7900	-39.008539	-9.771659	11.200857	-159.092248	811.744164	5.830894	6.473373	-45.000000	44.999850	-45.000000	-15.174559	-3337.869301	-1372.088401	31.623387	63.823791	2172.432826	23.016651	19.385451	8.873129	-5.239412	41.709436	-45.000000	-45.000000	45.000000	3002.216192	-6398.624769	11.121680	180.000000	11.562438	-145.657732	9.427291	-13.605750	
4.8000	-39.009553	-9.571239	11.146207	-161.774053	813.431663	5.775556	6.476999	-45.000000	44.999732	-45.000000	-15.223137	-3338.077786	-1371.834666	31.651560	63.805771	2172.486260	22.689465	19.421731	8.814120	-5.186582	41.704895	-45.000000	-45.000000	45.000000	3002.154981	-6398.368202	11.178829	180.000000	11.623099	-146.203096	9.554778	-13.653382	
4.8100	-39.007713	-9.384488	11.098224	-164.427208	815.114719	5.737209	6.498354	-45.000000	44.999519	-45.000000	-15.313565	-3338.290673	-1371.587782	31.687041	63.790130	2172.533901	22.356614	19.452481	8.751138	-5.135674	41.688604	-45.000000	-45.000000	45.000000	3002.094430	-6398.107145	11.228795	180.000000	11.681951	-146.710401	9.671016	-13.697011	
4.8200	-39.002137	-9.211922	11.055505	-167.051575	816.789603	5.717473	6.533675	-45.000000	44.999139	-45.000000	-15.440300	-3338.504352	-1371.347078	31.727944	63.774519	2172.570890	22.013018	19.477204	8.685446	-5.086460	41.658903	-45.000000	-45.000000	45.000000	3002.034816	-6397.839033	11.270160	180.000000	11.740068	-147.180021	9.777543	-13.738650	
4.8300	-38.991855	-9.055886	11.021095	-169.647283	818.452627	5.717348	6.587909	-45.000000	44.998458	-45.000000	-15.613324	-3338.721090	-1371.115531	31.776530	63.761813	2172.597482	21.650560	19.495541	8.615967	-5.039224	41.617380	-45.000000	-45.000000	45.000000	3001.976682	-6397.563226	11.304170	180.000000	11.798073	-147.614993	9.872055	-13.777082	
4.8400	-38.978848	-8.906450	10.984016	-172.214431	820.100198	5.737059	6.643980	-45.000000	44.997237	-45.000000	-15.803790	-3338.931809	-1370.889857	31.821058	63.747102	2172.609834	21.265928	19.509690	8.549163	-4.993378	41.572163	-45.000000	-45.000000	45.000000	3001.918658	-6397.285339	11.333022	180.000000	11.857177	-148.014305	9.963262	-13.820432	
4.8500	-38.963381	-8.760333	10.944631	-174.753200	821.729115	5.775971	6.703809	-45.000000	44.995055	-45.000000	-16.014576	-3339.143562	-1370.670190	31.865987	63.737146	2172.616072	20.854552	19.521150	8.483147	-4.948805	41.526740	-45.000000	-45.000000	44.999999	3001.859947	-6397.008833	11.357349	180.000000	11.918683	-148.378424	10.049159	-13.867862	
4.8600	-38.946525	-8.616909	10.903429	-177.263673	823.336557	5.832594	6.764271	-45.000000	44.991129	-45.000000	-16.243187	-3339.353827	-1370.455742	31.908527	63.731061	2172.616002	20.414327	19.531076	8.420421	-4.904957	41.481842	-45.000000	-45.000000	44.999999	3001.801873	-6396.733557	11.377654	180.000000	11.981915	-148.709397	10.130163	-13.920584	
4.8700	-38.927719	-8.478724	10.864235	-179.745778	824.920081	5.904685	6.831305	-45.000000	44.984146	-45.000000	-16.503621	-3339.568520	-1370.249547	31.957769	63.728852	2172.613095	19.944313	19.539230	8.354575	-4.861729	41.432108	-45.000000	-45.000000	44.999997	3001.742720	-6396.456248	11.390952	180.000000	12.050883	-149.013100	10.202093	-13.974549	
4.8800	-38.908000	-8.345265	10.827945	-182.199341	826.477591	5.989478	6.900111	-45.000000	44.971497	-45.000000	-16.793496	-3339.781041	-1370.049841	32.008457	63.730294	2172.605110	19.447913	19.546623	8.288927	-4.818168	41.381745	-45.000000	-45.000000	44.999995	3001.685788	-6396.177269	11.398521	180.000000	12.122943	-149.294259	10.266056	-14.031329	
4.8900	-38.887648	-8.213320	10.793556	-184.623961	828.007173	6.083946	6.964817	-45.000000	44.949234	-45.000000	-17.113817	-3339.992782	-1369.857874	32.064541	63.732872	2172.593900	18.932361	19.553439	8.216155	-4.773880	41.329733	-45.000000	-45.000000	44.999992	3001.627554	-6395.897565	11.397169	180.000000	12.201515	-149.557476	10.323303	-14.091274	
4.9000	-38.868587	-8.084671	10.763691	-187.019063	829.507070	6.185117	7.018544	-45.000000	44.908252	-45.000000	-17.466759	-3340.192678	-1369.670547	32.119126	63.742014	2172.580774	18.408211	19.561073	8.138221	-4.728306	41.281821	-45.000000	-45.000000	44.999985	3001.570566	-6395.616387	11.390626	180.000000	12.283884	-149.805390	10.374152	-14.154885	
4.9100	-38.852788	-7.950159	10.729634	-189.383410	830.975398	6.290305	7.045642	-45.000000	44.837918	-45.000000	-17.838662	-3340.370561	-1369.486363	32.168065	63.754010	2172.563161	17.891520	19.570244	8.052677	-4.681173	41.240330	-45.000000	-45.000000	44.999973	3001.508087	-6395.338572	11.377642	180.000000	12.374449	-150.038051	10.425138	-14.226359	
4.9200	-38.839453	-7.821511	10.707163	-191.715515	832.410428	6.397336	7.065227	-45.000000	44.730197	-45.000000	-18.257955	-3340.527006	-1369.303758	32.216759	63.782612	2172.546616	17.391376	19.580452	7.960404	-4.632547	41.203719	-45.000000	-45.000000	44.999951	3001.447545	-6395.058738	11.362786	180.000000	12.468764	-150.259226	10.465988	-14.296544	
4.9300	-38.829987	-7.691216	10.686221	-194.013291	833.810411	6.504617	7.069655	-45.000000	44.585304	-45.000000	-18.707190	-3340.659418	-1369.123259	32.263957	63.817527	2172.529311	16.917844	19.591840	7.863156	-4.582583	41.173318	-45.000000	-45.000000	44.999913	3001.385264	-6394.781759	11.345694	180.000000	12.569912	-150.471180	10.502216	-14.368026	
4.9400	-38.824189	-7.569462	10.676102	-196.274550	835.173749	6.611176	7.077543	-45.000000	44.408443	-45.000000	-19.199972	-3340.774712	-1368.946437	32.314636	63.866887	2172.515940	16.474894	19.603314	7.762167	-4.531675	41.145279	-45.000000	-45.000000	44.999844	3001.326999	-6394.501915	11.329759	180.000000	12.673627	-150.679035	10.525804	-14.433068	
4.9500	-38.822760	-7.445595	10.661920	-198.496807	836.498668	6.716529	7.079136	-45.000000	44.210072	-45.000000	-19.705067	-3340.874010	-1368.775177	32.364943	63.918925	2172.500578	16.069976	19.614091	7.658764	-4.480375	41.120797	-45.000000	-45.000000	44.999721	3001.268191	-6394.226036	11.312974	180.000000	12.782088	-150.885273	10.544503	-14.496391	
4.9600	-38.823807	-7.326645	10.651046	-200.678060	837.783379	6.820553	7.088298	-45.000000	44.002355	-45.000000	-20.224813	-3340.968625	-1368.611923	32.417468	63.980112	2172.486581	15.706520	19.622821	7.551628	-4.429469	41.097921	-45.000000	-45.000000	44.999500	3001.215285	-6393.950997	11.296673	180.000000	12.890504	-151.093848	10.552534	-14.552932	
4.9700	-38.825840	-7.208540	10.637450	-202.816742	839.025838	6.923250	7.102153	-45.000000	43.797466	-45.000000	-20.744206	-3341.064577	-1368.457085	32.471700	64.041914	2172.472274	15.388903	19.628687	7.439353	-4.379108	41.075875	-45.000000	-45.000000	44.999104	3001.166209	-6393.680775	11.278050	180.000000	13.000847	-151.307621	10.553313	-14.604166	
4.9800	-38.831015	-7.090231	10.618975	-204.912079	840.223863	7.024576	7.113240	-45.000000	43.597732	-45.000000	-21.256362	-3341.159639	-1368.311514	32.524527	64.104658	2172.455688	15.122980	19.630783	7.318886	-4.329345	41.055076	-45.000000	-45.000000	44.998395	3001.118940	-6393.414556	11.257891	180.000000	13.109873	-151.527941	10.548063	-14.652604	
4.9900	-38.838454	-6.970304	10.596208	-206.963863	841.375101	7.124277	7.122646	-45.000000	43.403228	-45.000000	-21.761617	-3341.254450	-1368.173605	32.576453	64.169031	2172.436279	14.914627	19.628859	7.189965	-4.280137	41.035187	-45.000000	-45.000000	44.997125	3001.072606	-6393.155437	11.235578	180.000000	13.217832	-151.755177	10.536488	-14.698090	
5.0000	-38.851664	-6.843288	10.562269	-208.972369	842.477189	7.221905	7.120921	-45.000000	43.207725	-45.000000	-22.253234	-3341.342638	-1368.049329	32.626888	64.233394	2172.408620	14.769307	19.621775	7.049898	-4.231810	41.018673	-45.000000	-45.000000	44.994850	3001.026614	-6392.905082	11.211903	180.000000	13.317476	-151.988109	10.520484	-14.746157	
5.0100	-38.868648	-6.711988	10.520248	-210.938087	843.527878	7.316861	7.118363	-45.000000	43.011368	-45.000000	-22.738388	-3341.428947	-1367.937681	32.680794	64.301295	2172.377858	14.690402	19.610451	6.901678	-4.183936	41.002963	-45.000000	-45.000000	44.990774	3000.982970	-6392.664345	11.186690	180.000000	13.410751	-152.225201	10.496918	-14.793581	
5.0200	-38.890480	-6.575986	10.468040	-212.861281	844.525050	7.408571	7.105450	-45.000000	42.814198	-45.000000	-23.211377	-3341.509451	-1367.837576	32.733698	64.368602	2172.345336	14.680967	19.595622	6.743274	-4.136094	40.990310	-45.000000	-45.000000	44.983477	3000.939444	-6392.431342	11.159509	180.000000	13.498061	-152.464084	10.469208	-14.844541	
5.0300	-38.912663	-6.443963	10.418250	-214.741898	845.466882	7.496581	7.097947	-45.000000	42.620619	-45.000000	-23.685551	-3341.592523	-1367.743532	32.787745	64.438154	2172.319619	14.742438	19.578665	6.578777	-4.087679	40.979156	-45.000000	-45.000000	44.970392	3000.899047	-6392.204392	11.131589	180.000000	13.584470	-152.704089	10.433193	-14.892920	
